<mxfile host="65bd71144e">
    <diagram id="ptVcAmoA81D6QG85US9k" name="Page-1">
        <mxGraphModel dx="364" dy="593" grid="0" gridSize="10" guides="1" tooltips="1" connect="1" arrows="1" fold="1" page="0" pageScale="1" pageWidth="850" pageHeight="1100" background="none" math="0" shadow="0">
            <root>
                <mxCell id="0"/>
                <mxCell id="1" parent="0"/>
                <mxCell id="2" value="Student" style="swimlane;fontStyle=1;align=center;verticalAlign=top;childLayout=stackLayout;horizontal=1;startSize=26;horizontalStack=0;resizeParent=1;resizeParentMax=0;resizeLast=0;collapsible=1;marginBottom=0;rounded=1;comic=0;enumerate=0;deletable=1;cloneable=1;shadow=0;swimlaneLine=0;fillColor=#6a00ff;strokeColor=#3700CC;fillStyle=auto;fontColor=#ffffff;" parent="1" vertex="1">
                    <mxGeometry x="195" y="347" width="160" height="101" as="geometry"/>
                </mxCell>
                <mxCell id="3" value="- student_id: int&#10;- student_enrollment: int" style="text;strokeColor=none;fillColor=none;align=left;verticalAlign=top;spacingLeft=4;spacingRight=4;overflow=hidden;rotatable=0;points=[[0,0.5],[1,0.5]];portConstraint=eastwest;rounded=1;comic=0;enumerate=0;deletable=1;cloneable=1;shadow=0;swimlaneLine=0;" parent="2" vertex="1">
                    <mxGeometry y="26" width="160" height="41" as="geometry"/>
                </mxCell>
                <mxCell id="23" value="" style="line;strokeWidth=1;fillColor=none;align=left;verticalAlign=middle;spacingTop=-1;spacingLeft=3;spacingRight=3;rotatable=0;labelPosition=right;points=[];portConstraint=eastwest;strokeColor=inherit;shadow=0;" parent="2" vertex="1">
                    <mxGeometry y="67" width="160" height="8" as="geometry"/>
                </mxCell>
                <mxCell id="24" value="Â " style="text;strokeColor=none;fillColor=none;align=left;verticalAlign=top;spacingLeft=4;spacingRight=4;overflow=hidden;rotatable=0;points=[[0,0.5],[1,0.5]];portConstraint=eastwest;shadow=0;" parent="2" vertex="1">
                    <mxGeometry y="75" width="160" height="26" as="geometry"/>
                </mxCell>
                <mxCell id="17" value="Person" style="swimlane;fontStyle=1;align=center;verticalAlign=top;childLayout=stackLayout;horizontal=1;startSize=26;horizontalStack=0;resizeParent=1;resizeParentMax=0;resizeLast=0;collapsible=1;marginBottom=0;rounded=1;comic=0;enumerate=0;deletable=1;cloneable=1;shadow=0;swimlaneLine=0;fillColor=#6a00ff;fontColor=#ffffff;strokeColor=#3700CC;" parent="1" vertex="1">
                    <mxGeometry x="195" y="154" width="160" height="112" as="geometry"/>
                </mxCell>
                <mxCell id="18" value="- person_id: int&#10;- name: str&#10;- surname: str" style="text;strokeColor=none;fillColor=none;align=left;verticalAlign=top;spacingLeft=4;spacingRight=4;overflow=hidden;rotatable=0;points=[[0,0.5],[1,0.5]];portConstraint=eastwest;rounded=1;comic=0;enumerate=0;deletable=1;cloneable=1;shadow=0;swimlaneLine=0;" parent="17" vertex="1">
                    <mxGeometry y="26" width="160" height="52" as="geometry"/>
                </mxCell>
                <mxCell id="19" value="" style="line;strokeWidth=1;fillColor=none;align=left;verticalAlign=middle;spacingTop=-1;spacingLeft=3;spacingRight=3;rotatable=0;labelPosition=right;points=[];portConstraint=eastwest;strokeColor=inherit;rounded=1;comic=0;enumerate=0;deletable=1;cloneable=1;shadow=0;swimlaneLine=0;" parent="17" vertex="1">
                    <mxGeometry y="78" width="160" height="8" as="geometry"/>
                </mxCell>
                <mxCell id="20" value="+ get_person(): dict" style="text;strokeColor=none;fillColor=none;align=left;verticalAlign=top;spacingLeft=4;spacingRight=4;overflow=hidden;rotatable=0;points=[[0,0.5],[1,0.5]];portConstraint=eastwest;rounded=1;comic=0;enumerate=0;deletable=1;cloneable=1;shadow=0;swimlaneLine=0;" parent="17" vertex="1">
                    <mxGeometry y="86" width="160" height="26" as="geometry"/>
                </mxCell>
                <mxCell id="22" value="Extends" style="endArrow=block;endSize=16;endFill=0;html=1;shadow=0;comic=0;exitX=0.5;exitY=0;exitDx=0;exitDy=0;entryX=0.5;entryY=1;entryDx=0;entryDy=0;" parent="1" source="2" target="17" edge="1">
                    <mxGeometry width="160" relative="1" as="geometry">
                        <mxPoint x="283" y="286" as="sourcePoint"/>
                        <mxPoint x="443" y="286" as="targetPoint"/>
                    </mxGeometry>
                </mxCell>
            </root>
        </mxGraphModel>
    </diagram>
</mxfile>